<mxfile host="65bd71144e">
    <diagram id="y1vHscILCm9MetW-U-uc" name="Página-1">
        <mxGraphModel dx="20955" dy="-1438" grid="1" gridSize="10" guides="1" tooltips="1" connect="1" arrows="1" fold="0" page="1" pageScale="1" pageWidth="5000" pageHeight="2000" math="0" shadow="0">
            <root>
                <mxCell id="0"/>
                <mxCell id="1" parent="0"/>
                <mxCell id="102" style="edgeStyle=none;html=1;entryX=0;entryY=0.5;entryDx=0;entryDy=0;" parent="1" source="72" target="99" edge="1">
                    <mxGeometry relative="1" as="geometry">
                        <Array as="points">
                            <mxPoint x="-18870" y="2433"/>
                        </Array>
                    </mxGeometry>
                </mxCell>
                <mxCell id="72" value="User" style="swimlane;fontStyle=1;align=center;verticalAlign=top;childLayout=stackLayout;horizontal=1;startSize=26;horizontalStack=0;resizeParent=1;resizeParentMax=0;resizeLast=0;collapsible=1;marginBottom=0;fillColor=#1A1A1A;" parent="1" vertex="1">
                    <mxGeometry x="-18950" y="2740" width="160" height="500" as="geometry">
                        <mxRectangle x="-19770" y="2180" width="70" height="30" as="alternateBounds"/>
                    </mxGeometry>
                </mxCell>
                <mxCell id="73" value="- idUser: int&#10;- idStatus: int&#10;- idProfile: int&#10;- idDocumentType: int&#10;- idCountry: int&#10;- idCity: int&#10;- idLanguage: int&#10;- idFile: int&#10;- idAddress: int&#10;- verifiedAccount: Boolean&#10;- sessionStatus: Boolean&#10;- firstName: string&#10;- secondFirstName: string&#10;- lastName: string&#10;- secondLastName: string&#10;- documentNumber: string&#10;- email: string&#10;- password: string&#10;- address: string&#10;- phoneNumber: string&#10;- birthDate: int&#10;- dateCreated: int&#10;- dateUpdated: int" style="text;strokeColor=none;fillColor=none;align=left;verticalAlign=top;spacingLeft=4;spacingRight=4;overflow=hidden;rotatable=0;points=[[0,0.5],[1,0.5]];portConstraint=eastwest;" parent="72" vertex="1">
                    <mxGeometry y="26" width="160" height="334" as="geometry"/>
                </mxCell>
                <mxCell id="74" value="" style="line;strokeWidth=1;fillColor=none;align=left;verticalAlign=middle;spacingTop=-1;spacingLeft=3;spacingRight=3;rotatable=0;labelPosition=right;points=[];portConstraint=eastwest;strokeColor=inherit;" parent="72" vertex="1">
                    <mxGeometry y="360" width="160" height="8" as="geometry"/>
                </mxCell>
                <mxCell id="75" value="+ method(type): type&#10;- createUser()&#10;- updateUser()&#10;- getAllUsers()&#10;- getUserById()&#10;- getUserFilter()&#10;- deleteUser()&#10;- deleteAllUsers()" style="text;strokeColor=none;fillColor=none;align=left;verticalAlign=top;spacingLeft=4;spacingRight=4;overflow=hidden;rotatable=0;points=[[0,0.5],[1,0.5]];portConstraint=eastwest;" parent="72" vertex="1">
                    <mxGeometry y="368" width="160" height="132" as="geometry"/>
                </mxCell>
                <mxCell id="85" value="Status" style="swimlane;fontStyle=1;align=center;verticalAlign=top;childLayout=stackLayout;horizontal=1;startSize=26;horizontalStack=0;resizeParent=1;resizeParentMax=0;resizeLast=0;collapsible=1;marginBottom=0;fillColor=#1A1A1A;" parent="1" vertex="1">
                    <mxGeometry x="-18560" y="2740" width="160" height="230" as="geometry"/>
                </mxCell>
                <mxCell id="86" value="- idStatus:  Int&#10;- name: String, &#10;- description: String,&#10;- dateCreated: Int, &#10;- dateUpdated: Int," style="text;strokeColor=none;fillColor=none;align=left;verticalAlign=top;spacingLeft=4;spacingRight=4;overflow=hidden;rotatable=0;points=[[0,0.5],[1,0.5]];portConstraint=eastwest;" parent="85" vertex="1">
                    <mxGeometry y="26" width="160" height="84" as="geometry"/>
                </mxCell>
                <mxCell id="87" value="" style="line;strokeWidth=1;fillColor=none;align=left;verticalAlign=middle;spacingTop=-1;spacingLeft=3;spacingRight=3;rotatable=0;labelPosition=right;points=[];portConstraint=eastwest;strokeColor=inherit;" parent="85" vertex="1">
                    <mxGeometry y="110" width="160" height="8" as="geometry"/>
                </mxCell>
                <mxCell id="88" value="- createStatus()&#10;- updateStatus()&#10;- getListStatus()&#10;- getStatusById()&#10;- getStatusFilter()&#10;- deleteStatus()&#10;- deleteAllStatus()" style="text;strokeColor=none;fillColor=none;align=left;verticalAlign=top;spacingLeft=4;spacingRight=4;overflow=hidden;rotatable=0;points=[[0,0.5],[1,0.5]];portConstraint=eastwest;" parent="85" vertex="1">
                    <mxGeometry y="118" width="160" height="112" as="geometry"/>
                </mxCell>
                <mxCell id="91" style="edgeStyle=none;html=1;entryX=0.008;entryY=0.393;entryDx=0;entryDy=0;entryPerimeter=0;" parent="1" target="86" edge="1">
                    <mxGeometry relative="1" as="geometry">
                        <mxPoint x="-18790" y="2800" as="sourcePoint"/>
                        <Array as="points"/>
                    </mxGeometry>
                </mxCell>
                <mxCell id="97" style="edgeStyle=none;html=1;entryX=0.501;entryY=1.016;entryDx=0;entryDy=0;entryPerimeter=0;" parent="1" source="92" target="88" edge="1">
                    <mxGeometry relative="1" as="geometry"/>
                </mxCell>
                <mxCell id="92" value="Profile" style="swimlane;fontStyle=1;align=center;verticalAlign=top;childLayout=stackLayout;horizontal=1;startSize=26;horizontalStack=0;resizeParent=1;resizeParentMax=0;resizeLast=0;collapsible=1;marginBottom=0;fillColor=#1A1A1A;" parent="1" vertex="1">
                    <mxGeometry x="-18560" y="3090" width="160" height="240" as="geometry"/>
                </mxCell>
                <mxCell id="93" value="- idProfile:  Int&#10;- idStatus:  Int&#10;- name: String, &#10;- description: String,&#10;- dateCreated: Int, &#10;- dateUpdated: Int," style="text;strokeColor=none;fillColor=none;align=left;verticalAlign=top;spacingLeft=4;spacingRight=4;overflow=hidden;rotatable=0;points=[[0,0.5],[1,0.5]];portConstraint=eastwest;" parent="92" vertex="1">
                    <mxGeometry y="26" width="160" height="94" as="geometry"/>
                </mxCell>
                <mxCell id="94" value="" style="line;strokeWidth=1;fillColor=none;align=left;verticalAlign=middle;spacingTop=-1;spacingLeft=3;spacingRight=3;rotatable=0;labelPosition=right;points=[];portConstraint=eastwest;strokeColor=inherit;" parent="92" vertex="1">
                    <mxGeometry y="120" width="160" height="8" as="geometry"/>
                </mxCell>
                <mxCell id="95" value="- createProfile()&#10;- updateProfile()&#10;- getListProfile()&#10;- getProfileById()&#10;- getProfileFilter()&#10;- deleteProfile()&#10;- deleteAllProfiles()" style="text;strokeColor=none;fillColor=none;align=left;verticalAlign=top;spacingLeft=4;spacingRight=4;overflow=hidden;rotatable=0;points=[[0,0.5],[1,0.5]];portConstraint=eastwest;" parent="92" vertex="1">
                    <mxGeometry y="128" width="160" height="112" as="geometry"/>
                </mxCell>
                <mxCell id="96" style="edgeStyle=none;html=1;exitX=1;exitY=0.192;exitDx=0;exitDy=0;exitPerimeter=0;" parent="1" source="73" edge="1">
                    <mxGeometry relative="1" as="geometry">
                        <mxPoint x="-18780" y="2830" as="sourcePoint"/>
                        <mxPoint x="-18563" y="3158" as="targetPoint"/>
                        <Array as="points">
                            <mxPoint x="-18700" y="2829"/>
                            <mxPoint x="-18700" y="3158"/>
                        </Array>
                    </mxGeometry>
                </mxCell>
                <mxCell id="98" value="DocumentType" style="swimlane;fontStyle=1;align=center;verticalAlign=top;childLayout=stackLayout;horizontal=1;startSize=26;horizontalStack=0;resizeParent=1;resizeParentMax=0;resizeLast=0;collapsible=1;marginBottom=0;fillColor=#1A1A1A;" parent="1" vertex="1">
                    <mxGeometry x="-18770" y="2360" width="170" height="240" as="geometry"/>
                </mxCell>
                <mxCell id="99" value="- idDocumentType:  Int&#10;- idStatus:  Int&#10;- name: String, &#10;- description: String,&#10;- dateCreated: Int, &#10;- dateUpdated: Int," style="text;strokeColor=none;fillColor=none;align=left;verticalAlign=top;spacingLeft=4;spacingRight=4;overflow=hidden;rotatable=0;points=[[0,0.5],[1,0.5]];portConstraint=eastwest;" parent="98" vertex="1">
                    <mxGeometry y="26" width="170" height="94" as="geometry"/>
                </mxCell>
                <mxCell id="100" value="" style="line;strokeWidth=1;fillColor=none;align=left;verticalAlign=middle;spacingTop=-1;spacingLeft=3;spacingRight=3;rotatable=0;labelPosition=right;points=[];portConstraint=eastwest;strokeColor=inherit;" parent="98" vertex="1">
                    <mxGeometry y="120" width="170" height="8" as="geometry"/>
                </mxCell>
                <mxCell id="101" value="- createDocumentType()&#10;- updateDocumentType()&#10;- getListDocumentType()&#10;- getDocumentTypeById()&#10;- getDocumentTypeFilter()&#10;- deleteDocumentType()&#10;- deleteAllDocumentType()" style="text;strokeColor=none;fillColor=none;align=left;verticalAlign=top;spacingLeft=4;spacingRight=4;overflow=hidden;rotatable=0;points=[[0,0.5],[1,0.5]];portConstraint=eastwest;" parent="98" vertex="1">
                    <mxGeometry y="128" width="170" height="112" as="geometry"/>
                </mxCell>
                <mxCell id="104" style="edgeStyle=none;html=1;exitX=1;exitY=0.5;exitDx=0;exitDy=0;" parent="1" source="99" target="85" edge="1">
                    <mxGeometry relative="1" as="geometry">
                        <Array as="points">
                            <mxPoint x="-18480" y="2433"/>
                        </Array>
                    </mxGeometry>
                </mxCell>
                <mxCell id="105" value="Menu" style="swimlane;fontStyle=1;align=center;verticalAlign=top;childLayout=stackLayout;horizontal=1;startSize=26;horizontalStack=0;resizeParent=1;resizeParentMax=0;resizeLast=0;collapsible=1;marginBottom=0;fillColor=#1A1A1A;" parent="1" vertex="1">
                    <mxGeometry x="-18030" y="2730" width="160" height="300" as="geometry"/>
                </mxCell>
                <mxCell id="106" value="- idMenu:  Int&#10;- idStatus: Int, &#10;- name: String, &#10;- title: String, &#10;- icon: String, &#10;- link: String, &#10;- home: Boolean, &#10;- description: String, &#10;- dateCreated: Number, &#10;- dateUpdated: Number," style="text;strokeColor=none;fillColor=none;align=left;verticalAlign=top;spacingLeft=4;spacingRight=4;overflow=hidden;rotatable=0;points=[[0,0.5],[1,0.5]];portConstraint=eastwest;" parent="105" vertex="1">
                    <mxGeometry y="26" width="160" height="154" as="geometry"/>
                </mxCell>
                <mxCell id="107" value="" style="line;strokeWidth=1;fillColor=none;align=left;verticalAlign=middle;spacingTop=-1;spacingLeft=3;spacingRight=3;rotatable=0;labelPosition=right;points=[];portConstraint=eastwest;strokeColor=inherit;" parent="105" vertex="1">
                    <mxGeometry y="180" width="160" height="8" as="geometry"/>
                </mxCell>
                <mxCell id="108" value="- createMenu() &#10;- updateMenu() &#10;- getListMenu() &#10;- getMenuById() &#10;- getMenuFilter() &#10;- deleteMenu() &#10;- deleteAllMenus()" style="text;strokeColor=none;fillColor=none;align=left;verticalAlign=top;spacingLeft=4;spacingRight=4;overflow=hidden;rotatable=0;points=[[0,0.5],[1,0.5]];portConstraint=eastwest;" parent="105" vertex="1">
                    <mxGeometry y="188" width="160" height="112" as="geometry"/>
                </mxCell>
                <mxCell id="109" style="edgeStyle=none;html=1;entryX=0.999;entryY=0.819;entryDx=0;entryDy=0;entryPerimeter=0;" parent="1" source="106" target="86" edge="1">
                    <mxGeometry relative="1" as="geometry">
                        <mxPoint x="-18390" y="2835" as="targetPoint"/>
                    </mxGeometry>
                </mxCell>
                <mxCell id="197" style="edgeStyle=none;html=1;entryX=0.754;entryY=1.009;entryDx=0;entryDy=0;entryPerimeter=0;" parent="1" source="110" target="88" edge="1">
                    <mxGeometry relative="1" as="geometry">
                        <Array as="points">
                            <mxPoint x="-18280" y="3220"/>
                            <mxPoint x="-18280" y="3030"/>
                            <mxPoint x="-18440" y="3030"/>
                        </Array>
                    </mxGeometry>
                </mxCell>
                <mxCell id="110" value="MenuProfile" style="swimlane;fontStyle=1;align=center;verticalAlign=top;childLayout=stackLayout;horizontal=1;startSize=26;horizontalStack=0;resizeParent=1;resizeParentMax=0;resizeLast=0;collapsible=1;marginBottom=0;fillColor=#1A1A1A;" parent="1" vertex="1">
                    <mxGeometry x="-18210" y="3090" width="160" height="260" as="geometry"/>
                </mxCell>
                <mxCell id="111" value="- idMenuProfile: Int,&#10;- idProfile: Int, &#10;- idStatus:  Int&#10;- idMenu: Int, &#10;- description: String, &#10;- dateCreated: Int, &#10;- dateUpdated: Int," style="text;strokeColor=none;fillColor=none;align=left;verticalAlign=top;spacingLeft=4;spacingRight=4;overflow=hidden;rotatable=0;points=[[0,0.5],[1,0.5]];portConstraint=eastwest;" parent="110" vertex="1">
                    <mxGeometry y="26" width="160" height="114" as="geometry"/>
                </mxCell>
                <mxCell id="112" value="" style="line;strokeWidth=1;fillColor=none;align=left;verticalAlign=middle;spacingTop=-1;spacingLeft=3;spacingRight=3;rotatable=0;labelPosition=right;points=[];portConstraint=eastwest;strokeColor=inherit;" parent="110" vertex="1">
                    <mxGeometry y="140" width="160" height="8" as="geometry"/>
                </mxCell>
                <mxCell id="113" value="- createMenuProfile() &#10;- updateMenuProfile() &#10;- getListMenuProfile() &#10;- getMenuProfileById() &#10;- getMenuProfileFilter() &#10;- deleteMenuProfile() &#10;- deleteAllMenuProfiles()" style="text;strokeColor=none;fillColor=none;align=left;verticalAlign=top;spacingLeft=4;spacingRight=4;overflow=hidden;rotatable=0;points=[[0,0.5],[1,0.5]];portConstraint=eastwest;" parent="110" vertex="1">
                    <mxGeometry y="148" width="160" height="112" as="geometry"/>
                </mxCell>
                <mxCell id="114" style="edgeStyle=none;html=1;entryX=0.508;entryY=0.995;entryDx=0;entryDy=0;entryPerimeter=0;exitX=1.003;exitY=0.369;exitDx=0;exitDy=0;exitPerimeter=0;" parent="1" source="111" target="108" edge="1">
                    <mxGeometry relative="1" as="geometry">
                        <Array as="points">
                            <mxPoint x="-17949" y="3158"/>
                        </Array>
                    </mxGeometry>
                </mxCell>
                <mxCell id="115" style="edgeStyle=none;html=1;entryX=1.006;entryY=0.468;entryDx=0;entryDy=0;entryPerimeter=0;" parent="1" target="93" edge="1">
                    <mxGeometry relative="1" as="geometry">
                        <mxPoint x="-18210" y="3160" as="sourcePoint"/>
                    </mxGeometry>
                </mxCell>
                <mxCell id="116" value="City" style="swimlane;fontStyle=1;align=center;verticalAlign=top;childLayout=stackLayout;horizontal=1;startSize=26;horizontalStack=0;resizeParent=1;resizeParentMax=0;resizeLast=0;collapsible=1;marginBottom=0;fillColor=#1A1A1A;" parent="1" vertex="1">
                    <mxGeometry x="-18280" y="2370" width="160" height="260" as="geometry"/>
                </mxCell>
                <mxCell id="117" value="- idCity: Int, &#10;- idStatus:  Int&#10;- idCountry: Int, &#10;- name: String,&#10;- description: String, &#10;- dateCreated: Int, &#10;- dateUpdated: Int," style="text;strokeColor=none;fillColor=none;align=left;verticalAlign=top;spacingLeft=4;spacingRight=4;overflow=hidden;rotatable=0;points=[[0,0.5],[1,0.5]];portConstraint=eastwest;" parent="116" vertex="1">
                    <mxGeometry y="26" width="160" height="114" as="geometry"/>
                </mxCell>
                <mxCell id="118" value="" style="line;strokeWidth=1;fillColor=none;align=left;verticalAlign=middle;spacingTop=-1;spacingLeft=3;spacingRight=3;rotatable=0;labelPosition=right;points=[];portConstraint=eastwest;strokeColor=inherit;" parent="116" vertex="1">
                    <mxGeometry y="140" width="160" height="8" as="geometry"/>
                </mxCell>
                <mxCell id="119" value="- createCity() &#10;- updateCity() &#10;- getListCity() &#10;- getCityById() &#10;- getCityFilter() &#10;- deleteCity() &#10;- deleteAllCities()" style="text;strokeColor=none;fillColor=none;align=left;verticalAlign=top;spacingLeft=4;spacingRight=4;overflow=hidden;rotatable=0;points=[[0,0.5],[1,0.5]];portConstraint=eastwest;" parent="116" vertex="1">
                    <mxGeometry y="148" width="160" height="112" as="geometry"/>
                </mxCell>
                <mxCell id="120" value="Country" style="swimlane;fontStyle=1;align=center;verticalAlign=top;childLayout=stackLayout;horizontal=1;startSize=26;horizontalStack=0;resizeParent=1;resizeParentMax=0;resizeLast=0;collapsible=1;marginBottom=0;fillColor=#1A1A1A;" parent="1" vertex="1">
                    <mxGeometry x="-17980" y="2370" width="160" height="240" as="geometry"/>
                </mxCell>
                <mxCell id="121" value="- idCountry: Int, &#10;- idStatus:  Int&#10;- name: String,&#10;- description: String, &#10;- dateCreated: Int, &#10;- dateUpdated: Int," style="text;strokeColor=none;fillColor=none;align=left;verticalAlign=top;spacingLeft=4;spacingRight=4;overflow=hidden;rotatable=0;points=[[0,0.5],[1,0.5]];portConstraint=eastwest;" parent="120" vertex="1">
                    <mxGeometry y="26" width="160" height="94" as="geometry"/>
                </mxCell>
                <mxCell id="122" value="" style="line;strokeWidth=1;fillColor=none;align=left;verticalAlign=middle;spacingTop=-1;spacingLeft=3;spacingRight=3;rotatable=0;labelPosition=right;points=[];portConstraint=eastwest;strokeColor=inherit;" parent="120" vertex="1">
                    <mxGeometry y="120" width="160" height="8" as="geometry"/>
                </mxCell>
                <mxCell id="123" value="- createCountry() &#10;- updateCountry() &#10;- getListCountry() &#10;- getCountryById() &#10;- getCountryFilter() &#10;- deleteCountry() &#10;- deleteAllCountries()" style="text;strokeColor=none;fillColor=none;align=left;verticalAlign=top;spacingLeft=4;spacingRight=4;overflow=hidden;rotatable=0;points=[[0,0.5],[1,0.5]];portConstraint=eastwest;" parent="120" vertex="1">
                    <mxGeometry y="128" width="160" height="112" as="geometry"/>
                </mxCell>
                <mxCell id="124" style="edgeStyle=none;html=1;exitX=1.005;exitY=0.394;exitDx=0;exitDy=0;exitPerimeter=0;entryX=-0.001;entryY=0.459;entryDx=0;entryDy=0;entryPerimeter=0;" parent="1" source="117" target="121" edge="1">
                    <mxGeometry relative="1" as="geometry"/>
                </mxCell>
                <mxCell id="125" style="edgeStyle=none;html=1;entryX=1;entryY=0.5;entryDx=0;entryDy=0;exitX=-0.01;exitY=0.367;exitDx=0;exitDy=0;exitPerimeter=0;" parent="1" source="117" target="86" edge="1">
                    <mxGeometry relative="1" as="geometry">
                        <Array as="points">
                            <mxPoint x="-18330" y="2438"/>
                            <mxPoint x="-18330" y="2808"/>
                        </Array>
                    </mxGeometry>
                </mxCell>
                <mxCell id="126" style="edgeStyle=none;html=1;exitX=-0.001;exitY=0.457;exitDx=0;exitDy=0;exitPerimeter=0;" parent="1" source="73" target="120" edge="1">
                    <mxGeometry relative="1" as="geometry">
                        <Array as="points">
                            <mxPoint x="-19040" y="2918"/>
                            <mxPoint x="-19040" y="2150"/>
                            <mxPoint x="-17900" y="2150"/>
                        </Array>
                    </mxGeometry>
                </mxCell>
                <mxCell id="127" style="edgeStyle=none;html=1;exitX=0;exitY=0.311;exitDx=0;exitDy=0;entryX=0.5;entryY=0;entryDx=0;entryDy=0;exitPerimeter=0;" parent="1" source="73" target="116" edge="1">
                    <mxGeometry relative="1" as="geometry">
                        <Array as="points">
                            <mxPoint x="-19010" y="2870"/>
                            <mxPoint x="-19010" y="2240"/>
                            <mxPoint x="-18200" y="2240"/>
                        </Array>
                    </mxGeometry>
                </mxCell>
                <mxCell id="132" style="edgeStyle=none;html=1;entryX=1;entryY=0.5;entryDx=0;entryDy=0;" parent="1" source="128" target="121" edge="1">
                    <mxGeometry relative="1" as="geometry">
                        <Array as="points">
                            <mxPoint x="-17610" y="2443"/>
                        </Array>
                    </mxGeometry>
                </mxCell>
                <mxCell id="128" value="Currency" style="swimlane;fontStyle=1;align=center;verticalAlign=top;childLayout=stackLayout;horizontal=1;startSize=26;horizontalStack=0;resizeParent=1;resizeParentMax=0;resizeLast=0;collapsible=1;marginBottom=0;fillColor=#1A1A1A;" parent="1" vertex="1">
                    <mxGeometry x="-17690" y="2590" width="160" height="260" as="geometry"/>
                </mxCell>
                <mxCell id="129" value="- idCurrency: Int,&#10;- idCountry: Int, &#10;- idStatus:  Int&#10;- name: String,&#10;- description: String, &#10;- dateCreated: Int, &#10;- dateUpdated: Int," style="text;strokeColor=none;fillColor=none;align=left;verticalAlign=top;spacingLeft=4;spacingRight=4;overflow=hidden;rotatable=0;points=[[0,0.5],[1,0.5]];portConstraint=eastwest;" parent="128" vertex="1">
                    <mxGeometry y="26" width="160" height="114" as="geometry"/>
                </mxCell>
                <mxCell id="130" value="" style="line;strokeWidth=1;fillColor=none;align=left;verticalAlign=middle;spacingTop=-1;spacingLeft=3;spacingRight=3;rotatable=0;labelPosition=right;points=[];portConstraint=eastwest;strokeColor=inherit;" parent="128" vertex="1">
                    <mxGeometry y="140" width="160" height="8" as="geometry"/>
                </mxCell>
                <mxCell id="131" value="- createCurrency() &#10;- updateCurrency() &#10;- getListCurrency() &#10;- getCurrencyById() &#10;- getCurrencyFilter() &#10;- deleteCurrency() &#10;- deleteAllCurrencies()" style="text;strokeColor=none;fillColor=none;align=left;verticalAlign=top;spacingLeft=4;spacingRight=4;overflow=hidden;rotatable=0;points=[[0,0.5],[1,0.5]];portConstraint=eastwest;" parent="128" vertex="1">
                    <mxGeometry y="148" width="160" height="112" as="geometry"/>
                </mxCell>
                <mxCell id="133" style="edgeStyle=none;html=1;entryX=1.003;entryY=0.306;entryDx=0;entryDy=0;entryPerimeter=0;exitX=0;exitY=0.561;exitDx=0;exitDy=0;exitPerimeter=0;" parent="1" source="129" target="86" edge="1">
                    <mxGeometry relative="1" as="geometry">
                        <Array as="points">
                            <mxPoint x="-18260" y="2680"/>
                            <mxPoint x="-18260" y="2791"/>
                        </Array>
                    </mxGeometry>
                </mxCell>
                <mxCell id="134" value="Language" style="swimlane;fontStyle=1;align=center;verticalAlign=top;childLayout=stackLayout;horizontal=1;startSize=26;horizontalStack=0;resizeParent=1;resizeParentMax=0;resizeLast=0;collapsible=1;marginBottom=0;fillColor=#1A1A1A;" parent="1" vertex="1">
                    <mxGeometry x="-18950" y="3320" width="160" height="250" as="geometry"/>
                </mxCell>
                <mxCell id="135" value="- idLanguage:  Int&#10;- idStatus:  Int&#10;- name: String, &#10;- description: String,&#10;- dateCreated: Int, &#10;- dateUpdated: Int," style="text;strokeColor=none;fillColor=none;align=left;verticalAlign=top;spacingLeft=4;spacingRight=4;overflow=hidden;rotatable=0;points=[[0,0.5],[1,0.5]];portConstraint=eastwest;" parent="134" vertex="1">
                    <mxGeometry y="26" width="160" height="104" as="geometry"/>
                </mxCell>
                <mxCell id="136" value="" style="line;strokeWidth=1;fillColor=none;align=left;verticalAlign=middle;spacingTop=-1;spacingLeft=3;spacingRight=3;rotatable=0;labelPosition=right;points=[];portConstraint=eastwest;strokeColor=inherit;" parent="134" vertex="1">
                    <mxGeometry y="130" width="160" height="8" as="geometry"/>
                </mxCell>
                <mxCell id="137" value="- createLanguage()&#10;- updateLanguage()&#10;- getListLanguage()&#10;- getLanguageById()&#10;- getLanguageFilter()&#10;- deleteLanguage()&#10;- deleteAllLanguage()" style="text;strokeColor=none;fillColor=none;align=left;verticalAlign=top;spacingLeft=4;spacingRight=4;overflow=hidden;rotatable=0;points=[[0,0.5],[1,0.5]];portConstraint=eastwest;" parent="134" vertex="1">
                    <mxGeometry y="138" width="160" height="112" as="geometry"/>
                </mxCell>
                <mxCell id="138" style="edgeStyle=none;html=1;" parent="1" target="134" edge="1">
                    <mxGeometry relative="1" as="geometry">
                        <mxPoint x="-18870" y="3210" as="sourcePoint"/>
                    </mxGeometry>
                </mxCell>
                <mxCell id="139" style="edgeStyle=none;html=1;entryX=-0.003;entryY=0.729;entryDx=0;entryDy=0;entryPerimeter=0;exitX=0.999;exitY=0.317;exitDx=0;exitDy=0;exitPerimeter=0;" parent="1" source="135" target="86" edge="1">
                    <mxGeometry relative="1" as="geometry">
                        <mxPoint x="-18790" y="3380" as="sourcePoint"/>
                        <Array as="points">
                            <mxPoint x="-18670" y="3379"/>
                            <mxPoint x="-18670" y="2830"/>
                        </Array>
                    </mxGeometry>
                </mxCell>
                <mxCell id="147" style="edgeStyle=none;html=1;entryX=1.009;entryY=0.099;entryDx=0;entryDy=0;entryPerimeter=0;exitX=0.56;exitY=0;exitDx=0;exitDy=0;exitPerimeter=0;" parent="1" source="143" target="88" edge="1">
                    <mxGeometry relative="1" as="geometry">
                        <Array as="points">
                            <mxPoint x="-18360" y="2870"/>
                        </Array>
                    </mxGeometry>
                </mxCell>
                <mxCell id="143" value="LanguageCity" style="swimlane;fontStyle=1;align=center;verticalAlign=top;childLayout=stackLayout;horizontal=1;startSize=26;horizontalStack=0;resizeParent=1;resizeParentMax=0;resizeLast=0;collapsible=1;marginBottom=0;fillColor=#1A1A1A;" parent="1" vertex="1">
                    <mxGeometry x="-18450" y="3410" width="160" height="260" as="geometry"/>
                </mxCell>
                <mxCell id="144" value="- idLanguageCity: Int, &#10;- idStatus:  Int&#10;- idCity:  Int&#10;- idCountry:  Int&#10;- description: String, &#10;- dateCreated: Int, &#10;- dateUpdated: Int," style="text;strokeColor=none;fillColor=none;align=left;verticalAlign=top;spacingLeft=4;spacingRight=4;overflow=hidden;rotatable=0;points=[[0,0.5],[1,0.5]];portConstraint=eastwest;" parent="143" vertex="1">
                    <mxGeometry y="26" width="160" height="114" as="geometry"/>
                </mxCell>
                <mxCell id="145" value="" style="line;strokeWidth=1;fillColor=none;align=left;verticalAlign=middle;spacingTop=-1;spacingLeft=3;spacingRight=3;rotatable=0;labelPosition=right;points=[];portConstraint=eastwest;strokeColor=inherit;" parent="143" vertex="1">
                    <mxGeometry y="140" width="160" height="8" as="geometry"/>
                </mxCell>
                <mxCell id="146" value="- createMenuProfile() &#10;- updateMenuProfile() &#10;- getListMenuProfile() &#10;- getMenuProfileById() &#10;- getMenuProfileFilter() &#10;- deleteMenuProfile() &#10;- deleteAllMenuProfiles()" style="text;strokeColor=none;fillColor=none;align=left;verticalAlign=top;spacingLeft=4;spacingRight=4;overflow=hidden;rotatable=0;points=[[0,0.5],[1,0.5]];portConstraint=eastwest;" parent="143" vertex="1">
                    <mxGeometry y="148" width="160" height="112" as="geometry"/>
                </mxCell>
                <mxCell id="148" style="edgeStyle=none;html=1;exitX=0.799;exitY=0.001;exitDx=0;exitDy=0;exitPerimeter=0;" parent="1" source="143" target="119" edge="1">
                    <mxGeometry relative="1" as="geometry">
                        <Array as="points">
                            <mxPoint x="-18320" y="2920"/>
                            <mxPoint x="-18200" y="2920"/>
                        </Array>
                    </mxGeometry>
                </mxCell>
                <mxCell id="149" style="edgeStyle=none;html=1;entryX=0.999;entryY=0.522;entryDx=0;entryDy=0;entryPerimeter=0;exitX=-0.012;exitY=0.409;exitDx=0;exitDy=0;exitPerimeter=0;" parent="1" source="144" target="135" edge="1">
                    <mxGeometry relative="1" as="geometry">
                        <Array as="points">
                            <mxPoint x="-18500" y="3483"/>
                            <mxPoint x="-18500" y="3400"/>
                        </Array>
                    </mxGeometry>
                </mxCell>
                <mxCell id="150" style="edgeStyle=none;html=1;entryX=-0.009;entryY=0.776;entryDx=0;entryDy=0;entryPerimeter=0;exitX=1.001;exitY=0.565;exitDx=0;exitDy=0;exitPerimeter=0;" parent="1" source="144" target="121" edge="1">
                    <mxGeometry relative="1" as="geometry">
                        <Array as="points">
                            <mxPoint x="-18250" y="3500"/>
                            <mxPoint x="-18250" y="3000"/>
                            <mxPoint x="-18090" y="3000"/>
                            <mxPoint x="-18090" y="2470"/>
                        </Array>
                    </mxGeometry>
                </mxCell>
                <mxCell id="163" style="edgeStyle=none;html=1;entryX=1;entryY=0.5;entryDx=0;entryDy=0;exitX=0;exitY=0.306;exitDx=0;exitDy=0;exitPerimeter=0;" parent="1" source="152" target="123" edge="1">
                    <mxGeometry relative="1" as="geometry">
                        <mxPoint x="-17700" y="2990" as="sourcePoint"/>
                        <Array as="points">
                            <mxPoint x="-17760" y="2990"/>
                            <mxPoint x="-17760" y="2554"/>
                        </Array>
                    </mxGeometry>
                </mxCell>
                <mxCell id="151" value="Location" style="swimlane;fontStyle=1;align=center;verticalAlign=top;childLayout=stackLayout;horizontal=1;startSize=26;horizontalStack=0;resizeParent=1;resizeParentMax=0;resizeLast=0;collapsible=1;marginBottom=0;fillColor=#1A1A1A;" parent="1" vertex="1">
                    <mxGeometry x="-17690" y="2920" width="160" height="290" as="geometry"/>
                </mxCell>
                <mxCell id="152" value="- idLocation:  Int&#10;- idStatus: Int, &#10;- idCountry:  Int&#10;- idCity:  Int&#10;- latitude: Decimal, &#10;- longitude: Decimal, &#10;- name: String,&#10;- description: String, &#10;- dateCreated: Number, &#10;- dateUpdated: Number," style="text;strokeColor=none;fillColor=none;align=left;verticalAlign=top;spacingLeft=4;spacingRight=4;overflow=hidden;rotatable=0;points=[[0,0.5],[1,0.5]];portConstraint=eastwest;" parent="151" vertex="1">
                    <mxGeometry y="26" width="160" height="144" as="geometry"/>
                </mxCell>
                <mxCell id="153" value="" style="line;strokeWidth=1;fillColor=none;align=left;verticalAlign=middle;spacingTop=-1;spacingLeft=3;spacingRight=3;rotatable=0;labelPosition=right;points=[];portConstraint=eastwest;strokeColor=inherit;" parent="151" vertex="1">
                    <mxGeometry y="170" width="160" height="8" as="geometry"/>
                </mxCell>
                <mxCell id="154" value="- createLocation() &#10;- updateLocation() &#10;- getListLocation() &#10;- getLocationById() &#10;- getLocationFilter() &#10;- deleteLocation() &#10;- deleteAllLocations()" style="text;strokeColor=none;fillColor=none;align=left;verticalAlign=top;spacingLeft=4;spacingRight=4;overflow=hidden;rotatable=0;points=[[0,0.5],[1,0.5]];portConstraint=eastwest;" parent="151" vertex="1">
                    <mxGeometry y="178" width="160" height="112" as="geometry"/>
                </mxCell>
                <mxCell id="155" value="LocationUser" style="swimlane;fontStyle=1;align=center;verticalAlign=top;childLayout=stackLayout;horizontal=1;startSize=26;horizontalStack=0;resizeParent=1;resizeParentMax=0;resizeLast=0;collapsible=1;marginBottom=0;fillColor=#1A1A1A;" parent="1" vertex="1">
                    <mxGeometry x="-17870" y="3290" width="160" height="270" as="geometry"/>
                </mxCell>
                <mxCell id="156" value="- idLocationUser: Int,&#10;- idStatus:  Int&#10;- idLocation: Int,&#10;- idUser: Int, &#10;- name: String,&#10;- description: String,&#10;- dateCreated: Int, &#10;- dateUpdated: Int," style="text;strokeColor=none;fillColor=none;align=left;verticalAlign=top;spacingLeft=4;spacingRight=4;overflow=hidden;rotatable=0;points=[[0,0.5],[1,0.5]];portConstraint=eastwest;" parent="155" vertex="1">
                    <mxGeometry y="26" width="160" height="124" as="geometry"/>
                </mxCell>
                <mxCell id="157" value="" style="line;strokeWidth=1;fillColor=none;align=left;verticalAlign=middle;spacingTop=-1;spacingLeft=3;spacingRight=3;rotatable=0;labelPosition=right;points=[];portConstraint=eastwest;strokeColor=inherit;" parent="155" vertex="1">
                    <mxGeometry y="150" width="160" height="8" as="geometry"/>
                </mxCell>
                <mxCell id="158" value="- createLocationUser() &#10;- updateLocationUser() &#10;- getListLocationUser() &#10;- getLocationUserById() &#10;- getLocationUserFilter() &#10;- deleteLocationUser() &#10;- deleteAllLocationsUser()" style="text;strokeColor=none;fillColor=none;align=left;verticalAlign=top;spacingLeft=4;spacingRight=4;overflow=hidden;rotatable=0;points=[[0,0.5],[1,0.5]];portConstraint=eastwest;" parent="155" vertex="1">
                    <mxGeometry y="158" width="160" height="112" as="geometry"/>
                </mxCell>
                <mxCell id="159" style="edgeStyle=none;html=1;entryX=0;entryY=0.444;entryDx=0;entryDy=0;entryPerimeter=0;" parent="1" target="152" edge="1">
                    <mxGeometry relative="1" as="geometry">
                        <mxPoint x="-17790" y="3290" as="sourcePoint"/>
                        <Array as="points">
                            <mxPoint x="-17790" y="3010"/>
                        </Array>
                    </mxGeometry>
                </mxCell>
                <mxCell id="160" style="edgeStyle=none;html=1;entryX=1;entryY=0.551;entryDx=0;entryDy=0;entryPerimeter=0;" parent="1" source="156" target="73" edge="1">
                    <mxGeometry relative="1" as="geometry">
                        <Array as="points">
                            <mxPoint x="-18610" y="3378"/>
                            <mxPoint x="-18610" y="2950"/>
                        </Array>
                    </mxGeometry>
                </mxCell>
                <mxCell id="162" style="edgeStyle=none;html=1;entryX=1;entryY=0.5;entryDx=0;entryDy=0;exitX=0.315;exitY=0.002;exitDx=0;exitDy=0;exitPerimeter=0;" parent="1" source="155" target="88" edge="1">
                    <mxGeometry relative="1" as="geometry">
                        <Array as="points">
                            <mxPoint x="-17820" y="3050"/>
                            <mxPoint x="-18150" y="3050"/>
                            <mxPoint x="-18150" y="2910"/>
                        </Array>
                    </mxGeometry>
                </mxCell>
                <mxCell id="164" style="edgeStyle=none;html=1;entryX=1.014;entryY=0.903;entryDx=0;entryDy=0;exitX=0.5;exitY=0;exitDx=0;exitDy=0;entryPerimeter=0;" parent="1" source="151" target="117" edge="1">
                    <mxGeometry relative="1" as="geometry">
                        <Array as="points">
                            <mxPoint x="-17610" y="2880"/>
                            <mxPoint x="-17830" y="2880"/>
                            <mxPoint x="-17830" y="2640"/>
                            <mxPoint x="-18050" y="2640"/>
                            <mxPoint x="-18050" y="2500"/>
                        </Array>
                    </mxGeometry>
                </mxCell>
                <mxCell id="165" style="edgeStyle=none;html=1;exitX=-0.011;exitY=0.651;exitDx=0;exitDy=0;entryX=1.004;entryY=0.918;entryDx=0;entryDy=0;entryPerimeter=0;exitPerimeter=0;" parent="1" source="152" target="88" edge="1">
                    <mxGeometry relative="1" as="geometry">
                        <Array as="points">
                            <mxPoint x="-17760" y="3040"/>
                            <mxPoint x="-17760" y="3070"/>
                            <mxPoint x="-18200" y="3070"/>
                            <mxPoint x="-18200" y="2960"/>
                        </Array>
                    </mxGeometry>
                </mxCell>
                <mxCell id="166" value="File" style="swimlane;fontStyle=1;align=center;verticalAlign=top;childLayout=stackLayout;horizontal=1;startSize=26;horizontalStack=0;resizeParent=1;resizeParentMax=0;resizeLast=0;collapsible=1;marginBottom=0;fillColor=#1A1A1A;" parent="1" vertex="1">
                    <mxGeometry x="-19310" y="2410" width="160" height="300" as="geometry"/>
                </mxCell>
                <mxCell id="167" value="- idFile:  Int&#10;- idStatus: Int, &#10;- name:  String&#10;- originalName: String,&#10;- extension: String,&#10;- location: String&#10;- size: Decimal,&#10;- description: String, &#10;- dateCreated: Number, &#10;- dateUpdated: Number," style="text;strokeColor=none;fillColor=none;align=left;verticalAlign=top;spacingLeft=4;spacingRight=4;overflow=hidden;rotatable=0;points=[[0,0.5],[1,0.5]];portConstraint=eastwest;" parent="166" vertex="1">
                    <mxGeometry y="26" width="160" height="154" as="geometry"/>
                </mxCell>
                <mxCell id="168" value="" style="line;strokeWidth=1;fillColor=none;align=left;verticalAlign=middle;spacingTop=-1;spacingLeft=3;spacingRight=3;rotatable=0;labelPosition=right;points=[];portConstraint=eastwest;strokeColor=inherit;" parent="166" vertex="1">
                    <mxGeometry y="180" width="160" height="8" as="geometry"/>
                </mxCell>
                <mxCell id="169" value="- createFile() &#10;- updateFile() &#10;- getListFile() &#10;- getFileById() &#10;- getFileFilter() &#10;- deleteFile() &#10;- deleteAllFiles()" style="text;strokeColor=none;fillColor=none;align=left;verticalAlign=top;spacingLeft=4;spacingRight=4;overflow=hidden;rotatable=0;points=[[0,0.5],[1,0.5]];portConstraint=eastwest;" parent="166" vertex="1">
                    <mxGeometry y="188" width="160" height="112" as="geometry"/>
                </mxCell>
                <mxCell id="170" value="FileUser" style="swimlane;fontStyle=1;align=center;verticalAlign=top;childLayout=stackLayout;horizontal=1;startSize=26;horizontalStack=0;resizeParent=1;resizeParentMax=0;resizeLast=0;collapsible=1;marginBottom=0;fillColor=#1A1A1A;" parent="1" vertex="1">
                    <mxGeometry x="-19490" y="2780" width="160" height="270" as="geometry"/>
                </mxCell>
                <mxCell id="171" value="- idFileUser: Int,&#10;- idFile: Int,&#10;- idUser: Int, &#10;- idStatus:  Int&#10;- name: String,&#10;- description: String,&#10;- dateCreated: Int, &#10;- dateUpdated: Int," style="text;strokeColor=none;fillColor=none;align=left;verticalAlign=top;spacingLeft=4;spacingRight=4;overflow=hidden;rotatable=0;points=[[0,0.5],[1,0.5]];portConstraint=eastwest;" parent="170" vertex="1">
                    <mxGeometry y="26" width="160" height="124" as="geometry"/>
                </mxCell>
                <mxCell id="172" value="" style="line;strokeWidth=1;fillColor=none;align=left;verticalAlign=middle;spacingTop=-1;spacingLeft=3;spacingRight=3;rotatable=0;labelPosition=right;points=[];portConstraint=eastwest;strokeColor=inherit;" parent="170" vertex="1">
                    <mxGeometry y="150" width="160" height="8" as="geometry"/>
                </mxCell>
                <mxCell id="173" value="- createFileUser() &#10;- updateFileUser() &#10;- getListFileUser() &#10;- getFileUserById() &#10;- getFileUserFilter() &#10;- deleteFileUserUser() &#10;- deleteAllFilesUser()" style="text;strokeColor=none;fillColor=none;align=left;verticalAlign=top;spacingLeft=4;spacingRight=4;overflow=hidden;rotatable=0;points=[[0,0.5],[1,0.5]];portConstraint=eastwest;" parent="170" vertex="1">
                    <mxGeometry y="158" width="160" height="112" as="geometry"/>
                </mxCell>
                <mxCell id="174" style="edgeStyle=none;html=1;entryX=0;entryY=0.416;entryDx=0;entryDy=0;entryPerimeter=0;" parent="1" target="167" edge="1">
                    <mxGeometry relative="1" as="geometry">
                        <mxPoint x="-19410" y="2780" as="sourcePoint"/>
                        <Array as="points">
                            <mxPoint x="-19410" y="2500"/>
                        </Array>
                    </mxGeometry>
                </mxCell>
                <mxCell id="176" style="edgeStyle=none;html=1;entryX=1.007;entryY=0.468;entryDx=0;entryDy=0;entryPerimeter=0;exitX=0;exitY=0.222;exitDx=0;exitDy=0;exitPerimeter=0;" parent="1" source="73" target="167" edge="1">
                    <mxGeometry relative="1" as="geometry">
                        <Array as="points">
                            <mxPoint x="-19070" y="2840"/>
                            <mxPoint x="-19070" y="2508"/>
                        </Array>
                        <mxPoint x="-18960" y="2840" as="sourcePoint"/>
                    </mxGeometry>
                </mxCell>
                <mxCell id="175" style="edgeStyle=none;html=1;entryX=0;entryY=0.581;entryDx=0;entryDy=0;entryPerimeter=0;" parent="1" target="73" edge="1">
                    <mxGeometry relative="1" as="geometry">
                        <Array as="points">
                            <mxPoint x="-19080" y="2870"/>
                            <mxPoint x="-19080" y="2960"/>
                        </Array>
                        <mxPoint x="-19330" y="2870" as="sourcePoint"/>
                    </mxGeometry>
                </mxCell>
                <mxCell id="177" style="edgeStyle=none;html=1;entryX=-0.002;entryY=-0.012;entryDx=0;entryDy=0;entryPerimeter=0;exitX=1.005;exitY=0.729;exitDx=0;exitDy=0;exitPerimeter=0;" parent="1" source="167" target="88" edge="1">
                    <mxGeometry relative="1" as="geometry">
                        <Array as="points">
                            <mxPoint x="-19110" y="2548"/>
                            <mxPoint x="-19110" y="2680"/>
                            <mxPoint x="-18640" y="2680"/>
                            <mxPoint x="-18640" y="2857"/>
                        </Array>
                    </mxGeometry>
                </mxCell>
                <mxCell id="178" style="edgeStyle=none;html=1;entryX=-0.003;entryY=0.195;entryDx=0;entryDy=0;exitX=1.001;exitY=0.867;exitDx=0;exitDy=0;exitPerimeter=0;entryPerimeter=0;" parent="1" source="171" target="88" edge="1">
                    <mxGeometry relative="1" as="geometry">
                        <Array as="points">
                            <mxPoint x="-19110" y="2914"/>
                            <mxPoint x="-19110" y="3280"/>
                            <mxPoint x="-18640" y="3280"/>
                            <mxPoint x="-18640" y="2880"/>
                        </Array>
                    </mxGeometry>
                </mxCell>
                <mxCell id="195" style="edgeStyle=none;html=1;exitX=1;exitY=0.5;exitDx=0;exitDy=0;entryX=1;entryY=0;entryDx=0;entryDy=0;" parent="1" source="182" target="116" edge="1">
                    <mxGeometry relative="1" as="geometry">
                        <Array as="points">
                            <mxPoint x="-19000" y="3458"/>
                            <mxPoint x="-19000" y="3760"/>
                            <mxPoint x="-17400" y="3760"/>
                            <mxPoint x="-17400" y="2310"/>
                            <mxPoint x="-18120" y="2310"/>
                        </Array>
                    </mxGeometry>
                </mxCell>
                <mxCell id="196" style="edgeStyle=none;html=1;" parent="1" source="181" target="120" edge="1">
                    <mxGeometry relative="1" as="geometry">
                        <Array as="points">
                            <mxPoint x="-19120" y="3720"/>
                            <mxPoint x="-17900" y="3720"/>
                            <mxPoint x="-17900" y="3160"/>
                            <mxPoint x="-17730" y="3160"/>
                            <mxPoint x="-17730" y="2490"/>
                        </Array>
                    </mxGeometry>
                </mxCell>
                <mxCell id="181" value="Address" style="swimlane;fontStyle=1;align=center;verticalAlign=top;childLayout=stackLayout;horizontal=1;startSize=26;horizontalStack=0;resizeParent=1;resizeParentMax=0;resizeLast=0;collapsible=1;marginBottom=0;fillColor=#1A1A1A;" parent="1" vertex="1">
                    <mxGeometry x="-19200" y="3360" width="160" height="290" as="geometry"/>
                </mxCell>
                <mxCell id="182" value="- idAddress:  Int&#10;- idStatus: Int, &#10;- idCoutry: Int,&#10;- idCity: Int,&#10;- name:  String&#10;- description: String,&#10;- dateCreated: Number, &#10;- dateUpdated: Number," style="text;strokeColor=none;fillColor=none;align=left;verticalAlign=top;spacingLeft=4;spacingRight=4;overflow=hidden;rotatable=0;points=[[0,0.5],[1,0.5]];portConstraint=eastwest;" parent="181" vertex="1">
                    <mxGeometry y="26" width="160" height="144" as="geometry"/>
                </mxCell>
                <mxCell id="183" value="" style="line;strokeWidth=1;fillColor=none;align=left;verticalAlign=middle;spacingTop=-1;spacingLeft=3;spacingRight=3;rotatable=0;labelPosition=right;points=[];portConstraint=eastwest;strokeColor=inherit;" parent="181" vertex="1">
                    <mxGeometry y="170" width="160" height="8" as="geometry"/>
                </mxCell>
                <mxCell id="184" value="- createAddress() &#10;- updateAddress() &#10;- getListAddress() &#10;- getAddressById() &#10;- getAddressFilter() &#10;- deleteAddress() &#10;- deleteAllAddress()" style="text;strokeColor=none;fillColor=none;align=left;verticalAlign=top;spacingLeft=4;spacingRight=4;overflow=hidden;rotatable=0;points=[[0,0.5],[1,0.5]];portConstraint=eastwest;" parent="181" vertex="1">
                    <mxGeometry y="178" width="160" height="112" as="geometry"/>
                </mxCell>
                <mxCell id="185" value="AddressUser" style="swimlane;fontStyle=1;align=center;verticalAlign=top;childLayout=stackLayout;horizontal=1;startSize=26;horizontalStack=0;resizeParent=1;resizeParentMax=0;resizeLast=0;collapsible=1;marginBottom=0;fillColor=#1A1A1A;" parent="1" vertex="1">
                    <mxGeometry x="-19470" y="3180" width="160" height="270" as="geometry"/>
                </mxCell>
                <mxCell id="186" value="- idAddressUser: Int,&#10;- idAddress: Int,&#10;- idUser: Int, &#10;- idStatus:  Int&#10;- name: String,&#10;- description: String,&#10;- dateCreated: Int, &#10;- dateUpdated: Int," style="text;strokeColor=none;fillColor=none;align=left;verticalAlign=top;spacingLeft=4;spacingRight=4;overflow=hidden;rotatable=0;points=[[0,0.5],[1,0.5]];portConstraint=eastwest;" parent="185" vertex="1">
                    <mxGeometry y="26" width="160" height="124" as="geometry"/>
                </mxCell>
                <mxCell id="187" value="" style="line;strokeWidth=1;fillColor=none;align=left;verticalAlign=middle;spacingTop=-1;spacingLeft=3;spacingRight=3;rotatable=0;labelPosition=right;points=[];portConstraint=eastwest;strokeColor=inherit;" parent="185" vertex="1">
                    <mxGeometry y="150" width="160" height="8" as="geometry"/>
                </mxCell>
                <mxCell id="188" value="- createAddressUser() &#10;- updateAddressUser() &#10;- getListAddressUser() &#10;- getAddressUserById() &#10;- getAddressUserFilter() &#10;- deleteAddressUserUser() &#10;- deleteAllAddressUser()" style="text;strokeColor=none;fillColor=none;align=left;verticalAlign=top;spacingLeft=4;spacingRight=4;overflow=hidden;rotatable=0;points=[[0,0.5],[1,0.5]];portConstraint=eastwest;" parent="185" vertex="1">
                    <mxGeometry y="158" width="160" height="112" as="geometry"/>
                </mxCell>
                <mxCell id="189" style="edgeStyle=none;html=1;entryX=0;entryY=0.444;entryDx=0;entryDy=0;entryPerimeter=0;exitX=0;exitY=0.5;exitDx=0;exitDy=0;" parent="1" source="186" target="182" edge="1">
                    <mxGeometry relative="1" as="geometry">
                        <mxPoint x="-19472" y="3270" as="sourcePoint"/>
                        <Array as="points">
                            <mxPoint x="-19570" y="3268"/>
                            <mxPoint x="-19570" y="3450"/>
                            <mxPoint x="-19570" y="3550"/>
                            <mxPoint x="-19250" y="3550"/>
                            <mxPoint x="-19250" y="3450"/>
                        </Array>
                    </mxGeometry>
                </mxCell>
                <mxCell id="190" style="edgeStyle=none;html=1;entryX=0;entryY=0.71;entryDx=0;entryDy=0;entryPerimeter=0;exitX=1.001;exitY=0.458;exitDx=0;exitDy=0;exitPerimeter=0;" parent="1" source="186" target="73" edge="1">
                    <mxGeometry relative="1" as="geometry">
                        <Array as="points">
                            <mxPoint x="-19160" y="3263"/>
                            <mxPoint x="-19160" y="3003"/>
                        </Array>
                    </mxGeometry>
                </mxCell>
                <mxCell id="191" style="edgeStyle=none;html=1;entryX=0;entryY=0.5;entryDx=0;entryDy=0;exitX=1.002;exitY=0.754;exitDx=0;exitDy=0;exitPerimeter=0;" parent="1" source="186" target="88" edge="1">
                    <mxGeometry relative="1" as="geometry">
                        <Array as="points">
                            <mxPoint x="-18730" y="3300"/>
                            <mxPoint x="-18730" y="2914"/>
                        </Array>
                        <mxPoint x="-19300" y="3300" as="sourcePoint"/>
                    </mxGeometry>
                </mxCell>
                <mxCell id="192" style="edgeStyle=none;html=1;entryX=0.299;entryY=1.008;entryDx=0;entryDy=0;entryPerimeter=0;exitX=0.5;exitY=0;exitDx=0;exitDy=0;" parent="1" source="181" target="88" edge="1">
                    <mxGeometry relative="1" as="geometry">
                        <Array as="points">
                            <mxPoint x="-19120" y="3260"/>
                            <mxPoint x="-18750" y="3260"/>
                            <mxPoint x="-18750" y="3000"/>
                            <mxPoint x="-18512" y="3000"/>
                        </Array>
                    </mxGeometry>
                </mxCell>
                <mxCell id="194" style="edgeStyle=none;html=1;entryX=0.75;entryY=0;entryDx=0;entryDy=0;" parent="1" target="181" edge="1">
                    <mxGeometry relative="1" as="geometry">
                        <mxPoint x="-18950" y="3040" as="sourcePoint"/>
                        <Array as="points">
                            <mxPoint x="-19080" y="3040"/>
                        </Array>
                    </mxGeometry>
                </mxCell>
            </root>
        </mxGraphModel>
    </diagram>
</mxfile>